<?xml version="1.0" encoding="utf-8"?>
<!-- Generator: Adobe Illustrator 13.0.0, SVG Export Plug-In . SVG Version: 6.00 Build 14948)  -->
<!DOCTYPE svg PUBLIC "-//W3C//DTD SVG 1.1//EN" "http://www.w3.org/Graphics/SVG/1.1/DTD/svg11.dtd">
<svg version="1.1" xmlns="http://www.w3.org/2000/svg" xmlns:xlink="http://www.w3.org/1999/xlink" x="0px" y="0px" width="800px"
	 height="600px" viewBox="0 0 800 600" enable-background="new 0 0 800 600" xml:space="preserve">
<g id="Sky">
	<linearGradient id="SVGID_1_" gradientUnits="userSpaceOnUse" x1="29.2915" y1="4.1572" x2="648.471" y2="263.598">
		<stop  offset="0" style="stop-color:#FFF5B3"/>
		<stop  offset="1" style="stop-color:#8FD9EB"/>
	</linearGradient>
	<polygon fill="url(#SVGID_1_)" points="0,0 0,318.974 800,327.973 800,0 	"/>
</g>
<g id="Sun">
	<g id="Layer_4" opacity="0.5">
		<ellipse fill="#FFEC00" stroke="#F3FFF6" stroke-width="61" cx="139.396" cy="92.062" rx="85.067" ry="82.94"/>
	</g>
	<g id="Layer_4_copy" opacity="0.61">
		<ellipse fill="#FFEC00" stroke="#FFFFFF" stroke-width="24" cx="139.396" cy="92.062" rx="85.067" ry="82.94"/>
	</g>
	<g>
		<ellipse fill="#FFEC00" stroke="#F29A0C" stroke-width="4" cx="139.396" cy="90.94" rx="85.067" ry="82.941"/>
		<ellipse fill="#F28A0C" cx="125.572" cy="120.98" rx="4.838" ry="10.368"/>
		<ellipse fill="#F28A0C" cx="175.37" cy="121.649" rx="4.838" ry="10.367"/>
		<path fill="none" stroke="#F28A0C" stroke-width="2" d="M166.617,139.004c0,5.637-7.95,10.208-17.758,10.208
			c-9.807,0-17.758-4.57-17.758-10.208"/>
	</g>
</g>
<g id="Houses">
	<g>
		<linearGradient id="SVGID_2_" gradientUnits="userSpaceOnUse" x1="386.1396" y1="258.8042" x2="503.1201" y2="258.8042">
			<stop  offset="0" style="stop-color:#C9B361"/>
			<stop  offset="1" style="stop-color:#8C6239"/>
		</linearGradient>
		<polygon fill="url(#SVGID_2_)" stroke="#000000" stroke-width="3" points="496.869,298.095 392.391,298.095 386.14,219.513 
			503.12,223.978 		"/>
		<rect x="424.24" y="246.302" fill="#42210B" stroke="#000000" stroke-width="3" width="38.398" height="51.793"/>
		<linearGradient id="SVGID_3_" gradientUnits="userSpaceOnUse" x1="466.5078" y1="189.5981" x2="491.5117" y2="189.5981">
			<stop  offset="0" style="stop-color:#C9B361"/>
			<stop  offset="1" style="stop-color:#8C6239"/>
		</linearGradient>
		<rect x="466.508" y="170.399" fill="url(#SVGID_3_)" stroke="#000000" stroke-width="3" width="25.004" height="38.398"/>
		<polygon fill="#42210B" stroke="#000000" stroke-width="3" points="367.982,227.252 517.11,226.359 444.778,170.102 		"/>
	</g>
	<g>
		
			<linearGradient id="SVGID_4_" gradientUnits="userSpaceOnUse" x1="677.4336" y1="271.9878" x2="786.9072" y2="271.9878" gradientTransform="matrix(-1 0 0 1 1460.4414 0)">
			<stop  offset="0" style="stop-color:#C9B361"/>
			<stop  offset="1" style="stop-color:#8C6239"/>
		</linearGradient>
		<polygon fill="url(#SVGID_4_)" stroke="#000000" stroke-width="3" points="679.384,307.596 777.158,307.596 783.008,236.38 
			673.534,240.426 		"/>
		<rect x="711.418" y="260.658" fill="#42210B" stroke="#000000" stroke-width="3" width="35.935" height="46.938"/>
		
			<linearGradient id="SVGID_5_" gradientUnits="userSpaceOnUse" x1="752.6445" y1="209.2695" x2="776.0439" y2="209.2695" gradientTransform="matrix(-1 0 0 1 1460.4414 0)">
			<stop  offset="0" style="stop-color:#C9B361"/>
			<stop  offset="1" style="stop-color:#8C6239"/>
		</linearGradient>
		<rect x="684.397" y="191.87" fill="url(#SVGID_5_)" stroke="#000000" stroke-width="3" width="23.399" height="34.799"/>
		<polygon fill="#42210B" stroke="#000000" stroke-width="3" points="800,243.394 660.441,242.584 728.132,191.601 		"/>
	</g>
	<g>
		
			<linearGradient id="SVGID_6_" gradientUnits="userSpaceOnUse" x1="36.8789" y1="266.5708" x2="145.623" y2="266.5708" gradientTransform="matrix(-1 0 0 1 198.6289 0)">
			<stop  offset="0" style="stop-color:#C9B361"/>
			<stop  offset="1" style="stop-color:#8C6239"/>
		</linearGradient>
		<polygon fill="url(#SVGID_6_)" stroke="#000000" stroke-width="3" points="58.816,303.096 155.939,303.096 161.75,230.046 
			53.006,234.196 		"/>
		<rect x="90.637" y="254.949" fill="#42210B" stroke="#000000" stroke-width="3" width="35.695" height="48.147"/>
		
			<linearGradient id="SVGID_7_" gradientUnits="userSpaceOnUse" x1="111.5884" y1="202.2373" x2="134.832" y2="202.2373" gradientTransform="matrix(-1 0 0 1 198.6289 0)">
			<stop  offset="0" style="stop-color:#C9B361"/>
			<stop  offset="1" style="stop-color:#8C6239"/>
		</linearGradient>
		<rect x="63.797" y="184.39" fill="url(#SVGID_7_)" stroke="#000000" stroke-width="3" width="23.244" height="35.695"/>
		<polygon fill="#42210B" stroke="#000000" stroke-width="3" points="178.629,237.24 40,236.41 107.24,184.113 		"/>
	</g>
	<g>
		<linearGradient id="SVGID_8_" gradientUnits="userSpaceOnUse" x1="252.1846" y1="257.915" x2="358.4136" y2="257.915">
			<stop  offset="0" style="stop-color:#D4FFFF"/>
			<stop  offset="1" style="stop-color:#D1DEED"/>
		</linearGradient>
		<polygon fill="url(#SVGID_8_)" stroke="#000000" stroke-width="3" points="352.738,293.595 257.861,293.595 252.185,222.235 
			358.414,226.29 		"/>
		<rect x="286.784" y="246.562" fill="#42210B" stroke="#000000" stroke-width="3" width="34.869" height="47.032"/>
		<rect x="325.167" y="177.635" fill="#D4FFFF" stroke="#000000" stroke-width="3" width="22.706" height="34.87"/>
		<polygon fill="#05455E" stroke="#000000" stroke-width="3" points="235.696,229.264 371.119,228.452 305.435,177.365 		"/>
	</g>
	<g>
		<linearGradient id="SVGID_9_" gradientUnits="userSpaceOnUse" x1="546.6719" y1="265.5366" x2="647.9902" y2="265.5366">
			<stop  offset="0" style="stop-color:#D4FFFF"/>
			<stop  offset="1" style="stop-color:#D1DEED"/>
		</linearGradient>
		<polygon fill="url(#SVGID_9_)" stroke="#000000" stroke-width="3" points="642.578,302.598 552.086,302.598 546.672,228.476 
			647.99,232.688 		"/>
		<rect x="579.672" y="253.745" fill="#42210B" stroke="#000000" stroke-width="3" width="33.257" height="48.853"/>
		<rect x="616.28" y="182.149" fill="#D4FFFF" stroke="#000000" stroke-width="3" width="21.655" height="36.219"/>
		<polygon fill="#05455E" stroke="#000000" stroke-width="3" points="530.945,235.776 660.108,234.934 597.46,181.869 		"/>
	</g>
</g>
<g id="Curb">
	<path fill="#DFF4F4" stroke="#305568" stroke-width="3" d="M-7.104,342.882L-1,300c0,0,325.528-11.784,403.854-9.807
		C585.96,294.815,799,311,799,311l18.896,40.201L-6,341.189"/>
</g>
<g id="Grass">
	<g>
		<linearGradient id="SVGID_10_" gradientUnits="userSpaceOnUse" x1="345.1865" y1="317.1523" x2="559.3405" y2="952.0825">
			<stop  offset="0" style="stop-color:#8CC63F"/>
			<stop  offset="1" style="stop-color:#459245"/>
		</linearGradient>
		<path fill="url(#SVGID_10_)" stroke="#4E7525" stroke-width="3" d="M810,620V351.189c0,0-243.78-21.955-404.94-21.955
			C300,329.234-6,341.189-6,341.189V620H810z"/>
	</g>
</g>
</svg>
