<?xml version="1.0" encoding="utf-8"?>
<!-- Generator: Adobe Illustrator 13.0.0, SVG Export Plug-In . SVG Version: 6.00 Build 14948)  -->
<!DOCTYPE svg PUBLIC "-//W3C//DTD SVG 1.0//EN" "http://www.w3.org/TR/2001/REC-SVG-20010904/DTD/svg10.dtd">
<svg version="1.0" id="Layer_1" xmlns="http://www.w3.org/2000/svg" xmlns:xlink="http://www.w3.org/1999/xlink" x="0px" y="0px"
	 width="170.238px" height="229.762px" viewBox="0 0 170.238 229.762" enable-background="new 0 0 170.238 229.762"
	 xml:space="preserve">
<linearGradient id="SVGID_1_" gradientUnits="userSpaceOnUse" x1="83.4614" y1="105.3638" x2="82.1519" y2="168.7163">
	<stop  offset="0" style="stop-color:#52FF3F"/>
	<stop  offset="1" style="stop-color:#00F1FF"/>
</linearGradient>
<path fill="url(#SVGID_1_)" stroke="#000000" stroke-width="5" d="M59.141,101.247c0,0-24,0.5-35,19.5s-8,15-8,15l33.5,7l1-8.5
	c0,0-5,29.5,5,35.5l66.5-2.5c0,0,3.706-14.15,2.268-28.069c-0.313-3.038-0.872-6.064-1.768-8.931l27.5-6.5c0,0-10.5-29.5-38-27.5
	S59.141,101.247,59.141,101.247z"/>
<path fill="#FFD29F" stroke="#000000" stroke-width="5" d="M42.643,29.08c0,0-32.668,56.333,39.666,69
	c0,0,74.667-6.667,39.667-73.333L42.643,29.08z"/>
<path fill="#FFF93F" stroke="#000000" stroke-width="5" d="M22.642,16.081c0,0-6.333,15.666,17,12.333s8-8.333,8-8.333
	L22.642,16.081z"/>
<path fill="#095F00" stroke="#000000" stroke-width="5" d="M41.308,28.081c41-55.333,82-3.667,82-3.667"/>
<linearGradient id="SVGID_2_" gradientUnits="userSpaceOnUse" x1="82.0483" y1="35.3877" x2="84.3814" y2="100.3877">
	<stop  offset="0" style="stop-color:#00345F"/>
	<stop  offset="1" style="stop-color:#000000"/>
</linearGradient>
<path fill="url(#SVGID_2_)" stroke="#000000" stroke-width="5" d="M37.142,53.069c0,0,3.276,64.061,47.809,52.325
	c0,0,41.526,7.925,43.096-57.26c0,0-3.482,2.064-6.78-4.182s-6.944-13.764-6.944-13.764s1.62-2.708-9.784-2.671
	c-11.404,0.035-43.757,0.79-43.757,0.79s-7.535-0.24-10.943,6.484C46.428,41.517,44.216,54.119,37.142,53.069z"/>
<linearGradient id="SVGID_3_" gradientUnits="userSpaceOnUse" x1="58.6768" y1="103.1616" x2="114.7031" y2="103.1616">
	<stop  offset="0" style="stop-color:#00345F"/>
	<stop  offset="1" style="stop-color:#000000"/>
</linearGradient>
<path fill="url(#SVGID_3_)" stroke="#000000" stroke-width="5" d="M59.635,103.054l-0.958,15.622c0,0,25.499-20.485,56.026-3.221
	l-4.107-17.595C110.596,97.861,84.361,71.735,59.635,103.054z"/>
<linearGradient id="SVGID_4_" gradientUnits="userSpaceOnUse" x1="87.6211" y1="109.1323" x2="88.9588" y2="146.4023">
	<stop  offset="0" style="stop-color:#7FAEFF"/>
	<stop  offset="1" style="stop-color:#000000"/>
</linearGradient>
<path fill="url(#SVGID_4_)" stroke="#000000" stroke-width="5" d="M87.877,146.406c0,0,31.1-0.145,33.108-19.214
	c0,0,1.106-17.189-34.47-18.021c0,0-34.711,4.033-30.604,21.628C55.912,130.799,61.825,148.266,87.877,146.406z"/>
<path fill="none" stroke="#000000" stroke-width="5" d="M85.889,111.291c0,0-25.867,0.809-27.766,17.796
	c0,0,6.577,15.864,30.104,14.962c0,0,29.589,0.48,30.291-18.754c0,0-0.682-5.914-6.597-8.863c0,0,16.932,19.272-23.62,25.02
	c0,0-7.461,0.792-14.886-1.53l-1.437-1.971l4.734,0.958l3.556-1.032l2.598,0.074l0.921-1.622l-5.232-0.663
	c0,0-3.021,1.253-1.124-1.216c0,0,1.383-2.432,2.985-1.769l-4.514-1.492l-0.958,1.105l-1.806,0.129c0,0-3.076-3.15-2.137-4.514
	c0,0,3.666-3.114,2.837-3.833l-4.79,1.897c0,0,4.717-10.188,9.323-7.406l-3.003-2.118C75.369,116.449,71.574,114.126,85.889,111.291
	z"/>
<circle fill="none" stroke="#000000" stroke-width="5" cx="83.809" cy="118.915" r="1.167"/>
<ellipse fill="none" stroke="#000000" stroke-width="5" cx="94.31" cy="118.581" rx="1" ry="1.5"/>
<ellipse fill="none" stroke="#000000" stroke-width="5" cx="105.476" cy="122.748" rx="1.167" ry="1"/>
<circle fill="none" stroke="#000000" stroke-width="5" cx="102.643" cy="132.081" r="1"/>
<ellipse fill="none" stroke="#000000" stroke-width="5" cx="85.976" cy="127.581" rx="1" ry="0.833"/>
<ellipse fill="none" stroke="#000000" stroke-width="5" cx="94.143" cy="128.415" rx="0.833" ry="0.333"/>
<ellipse fill="none" stroke="#000000" stroke-width="5" cx="91.809" cy="134.581" rx="0.167" ry="0.5"/>
<linearGradient id="SVGID_5_" gradientUnits="userSpaceOnUse" x1="64.6753" y1="46.0508" x2="65.9456" y2="81.444">
	<stop  offset="0" style="stop-color:#7FAEFF"/>
	<stop  offset="1" style="stop-color:#000000"/>
</linearGradient>
<path fill="url(#SVGID_5_)" stroke="#000000" stroke-width="5" d="M78.567,67.065c-2.414,9.644-10.307,15.976-17.628,14.144
	c-7.321-1.833-11.301-11.137-8.887-20.78s10.307-15.976,17.629-14.143C77.002,48.118,80.981,57.421,78.567,67.065z"/>
<linearGradient id="SVGID_6_" gradientUnits="userSpaceOnUse" x1="100.6719" y1="45.9214" x2="101.9515" y2="81.5732">
	<stop  offset="0" style="stop-color:#9FC6FF"/>
	<stop  offset="1" style="stop-color:#000000"/>
</linearGradient>
<path fill="url(#SVGID_6_)" stroke="#000000" stroke-width="5" d="M88.054,67.065c2.414,9.644,10.307,15.976,17.628,14.144
	c7.321-1.833,11.301-11.137,8.887-20.78s-10.307-15.976-17.629-14.143C89.619,48.118,85.64,57.421,88.054,67.065z"/>
<path fill="#FFD29F" stroke="#000000" stroke-width="5" d="M20.141,137.747c0,0-7.5,21.5,3.5,35l7,2c0,0,13.5-25.5,13-33
	L20.141,137.747z"/>
<path fill="#FFD29F" stroke="#000000" stroke-width="5" d="M125.641,130.747c0,0,13,28,13.5,36.5l9-2c0,0,7-28.5,2-41.5
	L125.641,130.747z"/>
<linearGradient id="SVGID_7_" gradientUnits="userSpaceOnUse" x1="89.9883" y1="166.5825" x2="88.746" y2="226.6805">
	<stop  offset="0" style="stop-color:#00587F"/>
	<stop  offset="1" style="stop-color:#000A1F"/>
</linearGradient>
<path fill="url(#SVGID_7_)" stroke="#000000" stroke-width="5" d="M55.641,169.747c0,0,2,26,12,28l10.5,5c0,0-10.5,10.5-0.5,13.5
	l13-16l-11-7.5c0,0-7-4.5-0.5-8.5c0,0,9-8.5,12.5,2l4.5,35l20,6c0,0,12-0.5,4.5-9.5l-10.5-8.5c0,0-6.5-1-0.5-13c0,0,11-11,12.5-29
	L55.641,169.747z"/>
<linearGradient id="SVGID_8_" gradientUnits="userSpaceOnUse" x1="46.791" y1="177.2485" x2="46.4914" y2="191.7449">
	<stop  offset="0" style="stop-color:#FFFFFF"/>
	<stop  offset="1" style="stop-color:#000A1F"/>
</linearGradient>
<ellipse fill="url(#SVGID_8_)" stroke="#000000" stroke-width="4" cx="46.641" cy="184.497" rx="6.5" ry="7.25"/>
<linearGradient id="SVGID_9_" gradientUnits="userSpaceOnUse" x1="125.791" y1="169.7485" x2="125.4913" y2="184.2454">
	<stop  offset="0" style="stop-color:#FFFFFF"/>
	<stop  offset="1" style="stop-color:#000A1F"/>
</linearGradient>
<ellipse fill="url(#SVGID_9_)" stroke="#000000" stroke-width="4" cx="125.641" cy="176.997" rx="6.5" ry="7.25"/>
<linearGradient id="SVGID_10_" gradientUnits="userSpaceOnUse" x1="37.8677" y1="338.9302" x2="37.1281" y2="374.7097" gradientTransform="matrix(0.854 1.1398 -0.9714 0.7278 341.5009 -106.5885)">
	<stop  offset="0" style="stop-color:#FFFFFF"/>
	<stop  offset="1" style="stop-color:#000A1F"/>
</linearGradient>
<polygon fill="url(#SVGID_10_)" stroke="#000000" stroke-width="4" points="43.181,181.433 39.912,176.771 2.863,199.189 
	13.479,214.372 50.954,192.523 "/>
<linearGradient id="SVGID_11_" gradientUnits="userSpaceOnUse" x1="263.4473" y1="42.8486" x2="262.7076" y2="78.6286" gradientTransform="matrix(0.7483 -1.2118 1.0328 0.6378 -114.1862 470.9225)">
	<stop  offset="0" style="stop-color:#FFFFFF"/>
	<stop  offset="1" style="stop-color:#000A1F"/>
</linearGradient>
<polygon fill="url(#SVGID_11_)" stroke="#000000" stroke-width="4" points="126.032,180.989 122.889,185.737 157.308,212.015 
	167.554,196.581 133.509,169.698 "/>
<ellipse transform="matrix(0.8474 -0.5309 0.5309 0.8474 -93.9271 42.1621)" fill="#1F1300" stroke="#000000" stroke-width="5" cx="26.391" cy="184.497" rx="11.75" ry="9.249"/>
<ellipse transform="matrix(0.9116 0.4111 -0.4111 0.9116 85.5327 -44.7795)" fill="#1F1300" stroke="#000000" stroke-width="5" cx="146.891" cy="176.497" rx="11.751" ry="9.25"/>
</svg>
