<?xml version="1.0" encoding="utf-8"?>
<!-- Generator: Adobe Illustrator 13.0.0, SVG Export Plug-In . SVG Version: 6.00 Build 14948)  -->
<!DOCTYPE svg PUBLIC "-//W3C//DTD SVG 1.0//EN" "http://www.w3.org/TR/2001/REC-SVG-20010904/DTD/svg10.dtd">
<svg version="1.0" id="Layer_1" xmlns="http://www.w3.org/2000/svg" xmlns:xlink="http://www.w3.org/1999/xlink" x="0px" y="0px"
	 width="178.37px" height="231.317px" viewBox="0 0 178.37 231.317" enable-background="new 0 0 178.37 231.317"
	 xml:space="preserve">
<path fill="#FFD29F" stroke="#000000" stroke-width="5" d="M29.375,29.08c0,0-32.668,56.333,39.666,69
	c0,0,74.667-6.667,39.667-73.333L29.375,29.08z"/>
<path fill="#FFF93F" stroke="#000000" stroke-width="5" d="M9.375,16.081c0,0-6.333,15.666,17,12.333s8-8.333,8-8.333L9.375,16.081z
	"/>
<path fill="#095F00" stroke="#000000" stroke-width="5" d="M28.041,28.081c41-55.333,82-3.667,82-3.667"/>
<path fill="#FFD29F" stroke="#000000" stroke-width="5" d="M3.006,135.957c0,0-0.742,25.746,13.946,37.774l7.357,0.367
	c0,0,5.322-31.751,2.574-39.912L3.006,135.957z"/>
<path fill="#FFD29F" stroke="#000000" stroke-width="5" d="M113.097,134.381c0,0,22.265,21.384,25.813,29.125l7.662-5.127
	c0,0-3.807-29.099-13.179-39.402L113.097,134.381z"/>
<linearGradient id="SVGID_1_" gradientUnits="userSpaceOnUse" x1="70.1943" y1="105.3638" x2="68.8848" y2="168.7163">
	<stop  offset="0" style="stop-color:#52FF3F"/>
	<stop  offset="1" style="stop-color:#00F1FF"/>
</linearGradient>
<path fill="url(#SVGID_1_)" stroke="#000000" stroke-width="5" d="M45.874,101.247c0,0-24,0.5-35,19.5s-8,15-8,15l33.5,7l1-8.5
	c0,0-5,29.5,5,35.5l66.5-2.5c0,0,3.706-14.15,2.268-28.069c-0.313-3.038-0.872-6.064-1.768-8.931l27.5-6.5c0,0-10.5-29.5-38-27.5
	S45.874,101.247,45.874,101.247z"/>
<linearGradient id="SVGID_2_" gradientUnits="userSpaceOnUse" x1="76.7202" y1="166.5825" x2="75.4779" y2="226.6805" gradientTransform="matrix(-0.9982 0.0607 0.0607 0.9982 140.0965 -4.2567)">
	<stop  offset="0" style="stop-color:#00587F"/>
	<stop  offset="1" style="stop-color:#000A1F"/>
</linearGradient>
<path fill="url(#SVGID_2_)" stroke="#000000" stroke-width="5" d="M108.107,167.75c0,0-0.418,26.073-10.278,28.677l-10.177,5.628
	c0,0,11.118,9.844,1.318,13.445l-13.947-15.182l10.524-8.154c0,0,6.714-4.916-0.017-8.515c0,0-9.5-7.938-12.356,2.756l-2.366,35.208
	l-19.599,7.203c0,0-12.008,0.229-5.068-9.209l9.964-9.122c0,0,6.428-1.393-0.29-13.006c0,0-11.647-10.313-14.237-28.188
	L108.107,167.75z"/>
<linearGradient id="SVGID_3_" gradientUnits="userSpaceOnUse" x1="39.4893" y1="181.2534" x2="39.1896" y2="195.7503" gradientTransform="matrix(0.9647 -0.2635 0.2635 0.9647 -45.3074 7.8134)">
	<stop  offset="0" style="stop-color:#FFFFFF"/>
	<stop  offset="1" style="stop-color:#000A1F"/>
</linearGradient>
<path fill="url(#SVGID_3_)" stroke="#000000" stroke-width="4" d="M48.583,177.575c1.055,3.862-0.897,7.761-4.36,8.706
	c-3.463,0.946-7.126-1.419-8.181-5.281c-1.055-3.862,0.897-7.76,4.36-8.706S47.528,173.712,48.583,177.575z"/>
<linearGradient id="SVGID_4_" gradientUnits="userSpaceOnUse" x1="126.5435" y1="169.5044" x2="126.2438" y2="184.0018" gradientTransform="matrix(0.932 -0.3625 0.3625 0.932 -52.0062 58.5686)">
	<stop  offset="0" style="stop-color:#FFFFFF"/>
	<stop  offset="1" style="stop-color:#000A1F"/>
</linearGradient>
<path fill="url(#SVGID_4_)" stroke="#000000" stroke-width="4" d="M135.919,175.13c1.451,3.731-0.084,7.812-3.43,9.113
	c-3.346,1.301-7.235-0.67-8.687-4.401s0.085-7.812,3.431-9.113C130.58,169.428,134.468,171.399,135.919,175.13z"/>
<linearGradient id="SVGID_5_" gradientUnits="userSpaceOnUse" x1="29.3628" y1="336.9751" x2="28.6232" y2="372.7546" gradientTransform="matrix(1.1242 0.8745 -0.7453 0.9581 258.1555 -169.8957)">
	<stop  offset="0" style="stop-color:#FFFFFF"/>
	<stop  offset="1" style="stop-color:#000A1F"/>
</linearGradient>
<polygon fill="url(#SVGID_5_)" stroke="#000000" stroke-width="4" points="38.167,177.244 33.786,173.608 3.954,204.996 
	18.195,216.844 48.588,185.893 "/>
<linearGradient id="SVGID_6_" gradientUnits="userSpaceOnUse" x1="255.4966" y1="52.5718" x2="254.757" y2="88.3522" gradientTransform="matrix(0.2582 -1.4007 1.1937 0.22 3.3325 525.0814)">
	<stop  offset="0" style="stop-color:#FFFFFF"/>
	<stop  offset="1" style="stop-color:#000A1F"/>
</linearGradient>
<polygon fill="url(#SVGID_6_)" stroke="#000000" stroke-width="4" points="131.673,181.065 130.464,186.629 172.068,198.645 
	176.023,180.545 134.549,167.832 "/>
<ellipse transform="matrix(0.6776 -0.7354 0.7354 0.6776 -128.435 76.2762)" fill="#1F1300" stroke="#000000" stroke-width="5" cx="22.778" cy="184.623" rx="11.75" ry="9.25"/>
<ellipse transform="matrix(0.9986 0.0526 -0.0526 0.9986 9.1216 -7.6353)" fill="#1F1300" stroke="#000000" stroke-width="5" cx="149.485" cy="169.317" rx="11.751" ry="9.251"/>
<linearGradient id="SVGID_7_" gradientUnits="userSpaceOnUse" x1="68.7813" y1="35.3877" x2="71.1143" y2="100.3877">
	<stop  offset="0" style="stop-color:#00345F"/>
	<stop  offset="1" style="stop-color:#000000"/>
</linearGradient>
<path fill="url(#SVGID_7_)" stroke="#000000" stroke-width="5" d="M23.875,53.069c0,0,3.276,64.061,47.809,52.325
	c0,0,41.526,7.925,43.096-57.26c0,0-3.482,2.064-6.78-4.182s-6.944-13.764-6.944-13.764s1.62-2.708-9.784-2.671
	c-11.404,0.035-43.757,0.79-43.757,0.79s-7.535-0.24-10.943,6.484C33.161,41.517,30.949,54.119,23.875,53.069z"/>
<linearGradient id="SVGID_8_" gradientUnits="userSpaceOnUse" x1="45.4097" y1="103.1616" x2="101.436" y2="103.1616">
	<stop  offset="0" style="stop-color:#00345F"/>
	<stop  offset="1" style="stop-color:#000000"/>
</linearGradient>
<path fill="url(#SVGID_8_)" stroke="#000000" stroke-width="5" d="M46.368,103.054l-0.958,15.622c0,0,25.499-20.485,56.026-3.221
	l-4.107-17.595C97.329,97.861,71.094,71.735,46.368,103.054z"/>
<linearGradient id="SVGID_9_" gradientUnits="userSpaceOnUse" x1="74.354" y1="109.1323" x2="75.6917" y2="146.4023">
	<stop  offset="0" style="stop-color:#7FAEFF"/>
	<stop  offset="1" style="stop-color:#000000"/>
</linearGradient>
<path fill="url(#SVGID_9_)" stroke="#000000" stroke-width="5" d="M74.61,146.406c0,0,31.1-0.145,33.108-19.214
	c0,0,1.106-17.189-34.47-18.021c0,0-34.711,4.033-30.604,21.628C42.645,130.799,48.558,148.266,74.61,146.406z"/>
<path fill="none" stroke="#000000" stroke-width="5" d="M72.622,111.291c0,0-25.867,0.809-27.766,17.796
	c0,0,6.577,15.864,30.104,14.962c0,0,29.589,0.48,30.291-18.754c0,0-0.682-5.914-6.597-8.863c0,0,16.932,19.272-23.62,25.02
	c0,0-7.461,0.792-14.886-1.53l-1.437-1.971l4.734,0.958l3.556-1.032l2.598,0.074l0.921-1.622l-5.232-0.663
	c0,0-3.021,1.253-1.124-1.216c0,0,1.383-2.432,2.985-1.769l-4.514-1.492l-0.958,1.105l-1.806,0.129c0,0-3.076-3.15-2.137-4.514
	c0,0,3.666-3.114,2.837-3.833l-4.79,1.897c0,0,4.717-10.188,9.323-7.406l-3.003-2.118C62.102,116.449,58.307,114.126,72.622,111.291
	z"/>
<circle fill="none" stroke="#000000" stroke-width="5" cx="70.542" cy="118.915" r="1.167"/>
<ellipse fill="none" stroke="#000000" stroke-width="5" cx="81.042" cy="118.581" rx="1" ry="1.5"/>
<ellipse fill="none" stroke="#000000" stroke-width="5" cx="92.209" cy="122.748" rx="1.167" ry="1"/>
<circle fill="none" stroke="#000000" stroke-width="5" cx="89.375" cy="132.081" r="1"/>
<ellipse fill="none" stroke="#000000" stroke-width="5" cx="72.708" cy="127.581" rx="1" ry="0.833"/>
<ellipse fill="none" stroke="#000000" stroke-width="5" cx="80.875" cy="128.415" rx="0.833" ry="0.333"/>
<ellipse fill="none" stroke="#000000" stroke-width="5" cx="78.542" cy="134.581" rx="0.167" ry="0.5"/>
<linearGradient id="SVGID_10_" gradientUnits="userSpaceOnUse" x1="51.4082" y1="46.0508" x2="52.6786" y2="81.444">
	<stop  offset="0" style="stop-color:#7FAEFF"/>
	<stop  offset="1" style="stop-color:#000000"/>
</linearGradient>
<path fill="url(#SVGID_10_)" stroke="#000000" stroke-width="5" d="M65.3,67.065c-2.414,9.644-10.307,15.976-17.628,14.144
	c-7.321-1.833-11.301-11.137-8.887-20.78s10.307-15.976,17.629-14.143C63.735,48.118,67.714,57.421,65.3,67.065z"/>
<linearGradient id="SVGID_11_" gradientUnits="userSpaceOnUse" x1="87.4048" y1="45.9214" x2="88.6844" y2="81.5732">
	<stop  offset="0" style="stop-color:#9FC6FF"/>
	<stop  offset="1" style="stop-color:#000000"/>
</linearGradient>
<path fill="url(#SVGID_11_)" stroke="#000000" stroke-width="5" d="M74.787,67.065c2.414,9.644,10.307,15.976,17.628,14.144
	c7.321-1.833,11.301-11.137,8.887-20.78S90.995,44.453,83.672,46.286C76.352,48.118,72.373,57.421,74.787,67.065z"/>
</svg>
