<?xml version="1.0" encoding="utf-8"?>
<!-- Generator: Adobe Illustrator 13.0.0, SVG Export Plug-In . SVG Version: 6.00 Build 14948)  -->
<!DOCTYPE svg PUBLIC "-//W3C//DTD SVG 1.0//EN" "http://www.w3.org/TR/2001/REC-SVG-20010904/DTD/svg10.dtd">
<svg version="1.0" id="Layer_1" xmlns="http://www.w3.org/2000/svg" xmlns:xlink="http://www.w3.org/1999/xlink" x="0px" y="0px"
	 width="170.09px" height="231.74px" viewBox="0 0 170.09 231.74" enable-background="new 0 0 170.09 231.74" xml:space="preserve">
<path fill="#FFD29F" stroke="#000000" stroke-width="5" d="M22.007,133.979c0,0-13.285,18.494-6.561,34.558l6.146,3.901
	c0,0,20.172-20.63,21.818-27.964L22.007,133.979z"/>
<path fill="#FFD29F" stroke="#000000" stroke-width="5" d="M122.858,132.613c0,0,16.395,26.156,17.953,34.527l8.68-3.108
	c0,0,3.385-29.151-3.2-41.424L122.858,132.613z"/>
<linearGradient id="SVGID_1_" gradientUnits="userSpaceOnUse" x1="91.4453" y1="166.9878" x2="90.203" y2="227.0858" gradientTransform="matrix(-0.9982 0.0607 0.0607 0.9982 165.856 -5.0393)">
	<stop  offset="0" style="stop-color:#00587F"/>
	<stop  offset="1" style="stop-color:#000A1F"/>
</linearGradient>
<path fill="url(#SVGID_1_)" stroke="#000000" stroke-width="5" d="M121.01,168.118c0,0,3.563,21.373-6.297,23.977l-5.604,21.829
	c0,0,19.239,5.838,9.439,9.439l-22.124-1.475l2.026-29.356c0,0-0.311-6.573-7.041-10.172c0,0-10.123-5.974-12.979,4.72
	l-0.885,35.988l-13.433,6.116c0,0-16.221,1.258-9.281-8.181l7.964-4.425c0,0,8.488-10.216,1.77-21.829c0,0-7.495-7.215-10.085-25.09
	L121.01,168.118z"/>
<linearGradient id="SVGID_2_" gradientUnits="userSpaceOnUse" x1="44.6558" y1="194.4907" x2="44.3561" y2="208.9881" gradientTransform="matrix(0.8709 0.4915 -0.4915 0.8709 107.928 14.761)">
	<stop  offset="0" style="stop-color:#FFFFFF"/>
	<stop  offset="1" style="stop-color:#000A1F"/>
</linearGradient>
<path fill="url(#SVGID_2_)" stroke="#000000" stroke-width="4" d="M53.204,215.524c-1.968,3.487-6.097,4.884-9.224,3.12
	c-3.126-1.765-4.066-6.021-2.098-9.509s6.098-4.884,9.224-3.12C54.232,207.78,55.171,212.037,53.204,215.524z"/>
<linearGradient id="SVGID_3_" gradientUnits="userSpaceOnUse" x1="125.4268" y1="194.0093" x2="125.1271" y2="208.5072" gradientTransform="matrix(0.7181 -0.6959 0.6959 0.7181 -109.4029 160.1531)">
	<stop  offset="0" style="stop-color:#FFFFFF"/>
	<stop  offset="1" style="stop-color:#000A1F"/>
</linearGradient>
<path fill="url(#SVGID_3_)" stroke="#000000" stroke-width="4" d="M125.29,212.964c2.786,2.876,2.956,7.231,0.378,9.73
	c-2.578,2.498-6.927,2.192-9.713-0.683c-2.787-2.875-2.956-7.231-0.379-9.73C118.154,209.784,122.503,210.089,125.29,212.964z"/>
<linearGradient id="SVGID_4_" gradientUnits="userSpaceOnUse" x1="46.2393" y1="348.8003" x2="45.4996" y2="384.5807" gradientTransform="matrix(0.1836 1.4124 -1.2037 0.1565 457.7368 90.3638)">
	<stop  offset="0" style="stop-color:#FFFFFF"/>
	<stop  offset="1" style="stop-color:#000A1F"/>
</linearGradient>
<polygon fill="url(#SVGID_4_)" stroke="#000000" stroke-width="4" points="46.035,207.961 45.48,202.294 2.196,203.611 3.98,222.05 
	47.355,221.44 "/>
<linearGradient id="SVGID_5_" gradientUnits="userSpaceOnUse" x1="248.8066" y1="53.5586" x2="248.067" y2="89.3385" gradientTransform="matrix(-0.306 -1.391 1.1855 -0.2608 135.7866 577.8921)">
	<stop  offset="0" style="stop-color:#FFFFFF"/>
	<stop  offset="1" style="stop-color:#000A1F"/>
</linearGradient>
<polygon fill="url(#SVGID_5_)" stroke="#000000" stroke-width="4" points="123.682,220.083 124.729,225.68 167.733,220.596 
	164.349,202.382 121.192,206.771 "/>
<ellipse transform="matrix(0.9631 -0.269 0.269 0.9631 -48.0397 10.6275)" fill="#1F1300" stroke="#000000" stroke-width="5" cx="14.754" cy="180.584" rx="11.75" ry="9.249"/>
<ellipse transform="matrix(0.9558 0.294 -0.294 0.9558 58.1588 -36.2457)" fill="#1F1300" stroke="#000000" stroke-width="5" cx="149.656" cy="175.35" rx="11.75" ry="9.249"/>
<linearGradient id="SVGID_6_" gradientUnits="userSpaceOnUse" x1="83.0972" y1="105.7319" x2="81.7876" y2="169.0845">
	<stop  offset="0" style="stop-color:#52FF3F"/>
	<stop  offset="1" style="stop-color:#00F1FF"/>
</linearGradient>
<path fill="url(#SVGID_6_)" stroke="#000000" stroke-width="5" d="M58.776,101.615c0,0-24,0.5-35,19.5s-8,15-8,15l33.5,7l1-8.5
	c0,0-5,29.5,5,35.5l66.5-2.5c0,0,3.706-14.15,2.268-28.069c-0.313-3.038-0.872-6.064-1.768-8.931l27.5-6.5c0,0-10.5-29.5-38-27.5
	S58.776,101.615,58.776,101.615z"/>
<g>
	<path fill="#FFD29F" stroke="#000000" stroke-width="5" d="M64.147,22.86c0,0-51.808,39.453,10.104,78.945
		c0,0,71.495,22.54,64.802-52.458L64.147,22.86z"/>
	<path fill="#FFF93F" stroke="#000000" stroke-width="5" d="M50.677,3.173c0,0-11.866,12.029,10.955,17.919
		c22.823,5.89,10.588-4.619,10.588-4.619L50.677,3.173z"/>
	<path fill="#095F00" stroke="#000000" stroke-width="5" d="M63.298,21.425c59.117-35.328,77.112,28.127,77.112,28.127"/>
</g>
<g>
	
		<linearGradient id="SVGID_7_" gradientUnits="userSpaceOnUse" x1="82.2866" y1="42.6357" x2="84.6196" y2="107.6357" gradientTransform="matrix(0.9335 0.3586 -0.3586 0.9335 35.2797 -23.7988)">
		<stop  offset="0" style="stop-color:#00345F"/>
		<stop  offset="1" style="stop-color:#000000"/>
	</linearGradient>
	<path fill="url(#SVGID_7_)" stroke="#000000" stroke-width="5" d="M48.545,45.913c0,0-19.913,60.975,25.866,65.989
		c0,0,35.924,22.288,60.761-37.998c0,0-3.989,0.678-4.829-6.335c-0.839-7.013-1.547-15.339-1.547-15.339s2.484-1.946-8.175-6.001
		c-10.66-4.057-41.13-14.953-41.13-14.953s-6.948-2.926-12.541,2.129C61.356,38.459,54.772,49.429,48.545,45.913z"/>
	
		<linearGradient id="SVGID_8_" gradientUnits="userSpaceOnUse" x1="58.9165" y1="110.4126" x2="114.9443" y2="110.4126" gradientTransform="matrix(0.9335 0.3586 -0.3586 0.9335 35.2797 -23.7988)">
		<stop  offset="0" style="stop-color:#00345F"/>
		<stop  offset="1" style="stop-color:#000000"/>
	</linearGradient>
	<path fill="url(#SVGID_8_)" stroke="#000000" stroke-width="5" d="M51.618,100.64l-6.497,14.24c0,0,31.149-9.979,53.457,17.083
		l2.474-17.896C101.052,114.066,85.931,80.27,51.618,100.64z"/>
	
		<linearGradient id="SVGID_9_" gradientUnits="userSpaceOnUse" x1="87.8613" y1="116.3823" x2="89.199" y2="153.6523" gradientTransform="matrix(0.9335 0.3586 -0.3586 0.9335 35.2797 -23.7988)">
		<stop  offset="0" style="stop-color:#7FAEFF"/>
		<stop  offset="1" style="stop-color:#000000"/>
	</linearGradient>
	<path fill="url(#SVGID_9_)" stroke="#000000" stroke-width="5" d="M62.436,151.236c0,0,29.083,11.018,37.798-6.064
		c0,0,7.195-15.648-25.717-29.182c0,0-33.848-8.683-36.323,9.215C38.194,125.205,37.45,143.628,62.436,151.236z"/>
	<path fill="none" stroke="#000000" stroke-width="5" d="M73.173,117.743c0,0-24.437-8.521-32.301,6.655
		c0,0,0.451,17.168,22.736,24.762c0,0,27.448,11.059,35.002-6.645c0,0,1.483-5.766-2.979-10.639c0,0,8.893,24.063-31.022,14.887
		c0,0-7.249-1.938-13.347-6.77l-0.634-2.352l4.076,2.592l3.689,0.311l2.398,1l1.441-1.184l-4.646-2.496c0,0-3.27,0.088-0.613-1.537
		c0,0,2.163-1.775,3.42-0.58l-3.678-3.012l-1.291,0.688l-1.732-0.525c0,0-1.742-4.045-0.376-4.98c0,0,4.539-1.594,4.023-2.563
		l-5.152,0.055c0,0,8.056-7.818,11.359-3.57l-2.044-3.055C61.502,118.785,58.792,115.257,73.173,117.743z"/>
	<circle fill="none" stroke="#000000" stroke-width="5" cx="68.497" cy="124.113" r="1.166"/>
	<path fill="none" stroke="#000000" stroke-width="5" d="M79.353,127.927c-0.297,0.771-0.955,1.238-1.472,1.039
		c-0.516-0.195-0.693-0.984-0.396-1.758c0.297-0.773,0.956-1.238,1.471-1.041C79.473,126.367,79.65,127.152,79.353,127.927z"/>
	
		<ellipse transform="matrix(0.9337 0.3581 -0.3581 0.9337 54.298 -22.2956)" fill="none" stroke="#000000" stroke-width="5" cx="87.349" cy="135.46" rx="1.167" ry="1.001"/>
	<circle fill="none" stroke="#000000" stroke-width="5" cx="81.358" cy="143.157" r="1"/>
	<path fill="none" stroke="#000000" stroke-width="5" d="M68.345,133.339c-0.165,0.43-0.716,0.617-1.232,0.418
		c-0.516-0.197-0.8-0.705-0.635-1.135c0.165-0.432,0.717-0.619,1.233-0.42C68.227,132.4,68.51,132.91,68.345,133.339z"/>
	
		<ellipse transform="matrix(0.9334 0.3589 -0.3589 0.9334 54.0395 -17.7168)" fill="none" stroke="#000000" stroke-width="5" cx="74.737" cy="136.687" rx="0.833" ry="0.333"/>
	
		<ellipse transform="matrix(0.9335 0.3587 -0.3587 0.9335 55.4727 -15.8099)" fill="none" stroke="#000000" stroke-width="5" cx="70.347" cy="141.606" rx="0.166" ry="0.501"/>
	
		<linearGradient id="SVGID_10_" gradientUnits="userSpaceOnUse" x1="64.9141" y1="53.3003" x2="66.1844" y2="88.6935" gradientTransform="matrix(0.9335 0.3586 -0.3586 0.9335 35.2797 -23.7988)">
		<stop  offset="0" style="stop-color:#7FAEFF"/>
		<stop  offset="1" style="stop-color:#000000"/>
	</linearGradient>
	<path fill="url(#SVGID_10_)" stroke="#000000" stroke-width="5" d="M82.197,73.833c-5.712,8.136-15.35,11.217-21.527,6.882
		c-6.177-4.336-6.556-14.448-0.844-22.585c5.712-8.137,15.35-11.217,21.528-6.88C87.53,55.584,87.909,65.697,82.197,73.833z"/>
	
		<linearGradient id="SVGID_11_" gradientUnits="userSpaceOnUse" x1="100.9102" y1="53.1709" x2="102.1898" y2="88.8218" gradientTransform="matrix(0.9335 0.3586 -0.3586 0.9335 35.2797 -23.7988)">
		<stop  offset="0" style="stop-color:#9FC6FF"/>
		<stop  offset="1" style="stop-color:#000000"/>
	</linearGradient>
	<path fill="url(#SVGID_11_)" stroke="#000000" stroke-width="5" d="M91.052,77.234c-1.203,9.868,3.894,18.609,11.385,19.525
		c7.491,0.914,14.541-6.344,15.747-16.212c1.204-9.869-3.893-18.609-11.386-19.523C99.308,60.108,92.258,67.367,91.052,77.234z"/>
</g>
</svg>
