<?xml version="1.0" encoding="utf-8"?>
<!-- Generator: Adobe Illustrator 13.0.0, SVG Export Plug-In . SVG Version: 6.00 Build 14948)  -->
<!DOCTYPE svg PUBLIC "-//W3C//DTD SVG 1.0//EN" "http://www.w3.org/TR/2001/REC-SVG-20010904/DTD/svg10.dtd">
<svg version="1.0" id="Layer_1" xmlns="http://www.w3.org/2000/svg" xmlns:xlink="http://www.w3.org/1999/xlink" x="0px" y="0px"
	 width="210.699px" height="231.797px" viewBox="0 0 210.699 231.797" enable-background="new 0 0 210.699 231.797"
	 xml:space="preserve">
<path fill="#000D29" stroke="#000000" stroke-width="2" d="M53.208,170.501c0,0-8.667,5.334-8,11c0.667,5.668,6.333,10,6.333,10
	s3.667,5.666,10.333,9.334c6.667,3.666,5,7.666,5,11.666s-1.333,3,1.667,4s3.667-1,5.667-3s2.667-5,3-8s-5.333-7.332-5.333-7.332
	l-6-5.668c0,0-2.333-2.666-2.333-5.666s-3-6.666,2.667-8.666s6-3.002,9-2.334c3,0.666,3.667-1,5.333,3s3.667,24,5,26.666
	c1.333,2.668,2.333,16.334,5.667,18.668c3.333,2.332,8.333,5.332,8.333,5.332s1.333,1,4.667,1c3.333,0,4,1.334,5-1.666
	s0.334-5.332-1.333-6.666s-4.333-4.668-7.333-4.668s-7-31.666-9.667-33.666s-1-6-2-8.334c-1-2.332-1.667-8.666-3.333-12
	c-1.667-3.332-10.667-31.332-9-38.332s-0.333-12.002,2.333-12.334c2.667-0.334,2-0.666,4.667,1.334s23,17.666,26.333,23
	c3.333,5.332,14.333,18.666,14.333,18.666l4.667-1.334c0,0-9.333-23.334-16-28.666c-6.667-5.334-10.333-10.668-21-16
	c-10.667-5.334-10.667-7-19.333-7.666c-8.667-0.668-8.667-0.668-8.667-0.668s0-5-0.667-5s5-0.666,11.667-4
	c6.667-3.332,11.667-3.666,13-11c1.333-7.332,1.333-22.666,0.667-31.666s-0.333-14.334-4-22.666c-3.667-8.334-13.667-18.334-20-21
	c-6.333-2.667-16.333-7-26.667-4.333s-16,6.667-19.667,14.333c-3.667,7.666-7,20.332-5,30c2,9.666,6.333,36.332,12,42
	c5.667,5.666,9.334,8,15.667,8s15.333,2,15.333,2s0,3.332,0,5c0,1.666,0.333,0.666-4.667,3c-5,2.332-5-0.668-12.333,2.332
	s-16.667,9.334-21,17c-4.333,7.668-5.667,10.668-8,19.668s-3.333,10.334-4,16.666c-0.667,6.334-0.667,6.334-0.667,6.334l7.333,2.666
	c0,0-0.333,1.666,2.667-9.666c3-11.334,0-13.334,8-25c8-11.668,13.333-17,16.333-18.334s6.666-1,8.333-1s5.667,1.666,6.667,2.666
	c1,1.002-2.667,37-2,42.668C53.542,167.835,53.208,170.501,53.208,170.501z"/>
<ellipse transform="matrix(0.9958 -0.0919 0.0919 0.9958 -4.7641 4.9011)" fill="#FFEAB0" stroke="#000000" stroke-width="2" cx="50.833" cy="54.177" rx="26.5" ry="9.681"/>
<path fill="#BF0600" stroke="#000000" stroke-width="2" d="M81.625,20.753c0,0,7.833,5.332,10.75,3.166s8.75-7.916,14.25-7.583
	s12.417,2.834,15.084,7.667c2.666,4.833,5.916,2.416,7.666,1.583s-2.25-9.917-2.25-9.917s-3.666,2.751-7.333,0.584
	s-10.584-7.334-17.917-2.667s-7.25,8.917-13.333,7.25s-6.583-1.25-6.583-1.25v0.583L81.625,20.753z"/>
<path fill="#BF0600" stroke="#000000" stroke-width="2" d="M14.875,23.169l-2,6.25c0,0,7.125,6.375,17.5,7.375
	s7.625,1.375,17.5-0.125S72.5,30.294,75.25,28.544s5.5-4.375,6.625-4.125s2.125-0.875,4.375,1s8.5,10.875,15.5,14.5
	s13.125,8.75,27,4.5s13.125-4.375,13.125-4.375l-13.125-6.625c0,0-11,9.875-23.875,1.25s-11.25-12.75-20.75-14s-9.5,0-9.5,0
	s-5.5,5.875-27.5,5.75S26,25.419,14.875,23.169z"/>
<g>
	<line fill="none" stroke="#000000" stroke-width="2" x1="34.875" y1="54.086" x2="50.208" y2="54.169"/>
	<line stroke="#000000" stroke-width="2" x1="55.292" y1="54.252" x2="68.542" y2="49.586"/>
	<ellipse stroke="#000000" stroke-width="2" cx="48.583" cy="55.878" rx="1.208" ry="1.541"/>
	<ellipse stroke="#000000" stroke-width="2" cx="56.875" cy="55.586" rx="1.208" ry="1.541"/>
</g>
<ellipse fill="#FFEAB0" stroke="#000000" stroke-width="2" cx="6.125" cy="172.669" rx="5.125" ry="3.625"/>
<ellipse transform="matrix(0.8629 -0.5054 0.5054 0.8629 -62.6886 86.904)" fill="#FFEAB0" stroke="#000000" stroke-width="2" cx="128.813" cy="158.982" rx="5.188" ry="3.312"/>
<line fill="none" stroke="#000000" stroke-width="2" x1="129.375" y1="150.919" x2="138.625" y2="163.044"/>
<linearGradient id="SVGID_1_" gradientUnits="userSpaceOnUse" x1="194.0225" y1="89.0063" x2="116.689" y2="170.0064">
	<stop  offset="0" style="stop-color:#FFFFFF"/>
	<stop  offset="1" style="stop-color:#000000"/>
</linearGradient>
<path fill="url(#SVGID_1_)" stroke="#000000" stroke-width="2" d="M133.875,156.002c0,0,79.834-67.834,75.667-80.5l-5.167-8
	c3.333,12.166-72.333,85.667-72.333,85.667"/>
</svg>
