<?xml version="1.0" encoding="utf-8"?>
<!-- Generator: Adobe Illustrator 13.0.0, SVG Export Plug-In . SVG Version: 6.00 Build 14948)  -->
<!DOCTYPE svg PUBLIC "-//W3C//DTD SVG 1.0//EN" "http://www.w3.org/TR/2001/REC-SVG-20010904/DTD/svg10.dtd">
<svg version="1.0" id="Layer_1" xmlns="http://www.w3.org/2000/svg" xmlns:xlink="http://www.w3.org/1999/xlink" x="0px" y="0px"
	 width="178.646px" height="229.623px" viewBox="0 0 178.646 229.623" enable-background="new 0 0 178.646 229.623"
	 xml:space="preserve">
<path fill="#000D29" stroke="#000000" stroke-width="2" d="M85.542,163.501c-1.667-3.332-10.667-31.332-9-38.332
	s-0.333-12.002,2.333-12.334c2.667-0.334,2-0.666,4.667,1.334s23,17.666,26.333,23c3.333,5.332,17.64,7.381,17.64,7.381l2.091-8.014
	c0,0-10.062-5.369-16.729-10.701c-6.667-5.334-10.333-10.668-21-16c-10.667-5.334-10.667-7-19.333-7.666
	c-8.667-0.668-8.667-0.668-8.667-0.668s0-5-0.667-5s5-0.666,11.667-4c6.667-3.332,11.667-3.666,13-11
	c1.333-7.332,1.333-22.666,0.667-31.666s-0.333-14.334-4-22.666c-3.667-8.334-13.667-18.334-20-21
	c-6.333-2.667-16.333-7-26.667-4.333s-16,6.667-19.667,14.333s-7,20.332-5,30c2,9.666,6.333,36.332,12,42
	c5.667,5.666,9.334,8,15.667,8s15.333,2,15.333,2s0,3.332,0,5c0,1.666,0.333,0.666-4.667,3c-5,2.332-5-0.668-12.333,2.332
	s-16.667,9.334-21,17c-4.333,7.668-5.667,10.668-8,19.668s-3.333,10.334-4,16.666c-0.667,6.334-0.667,6.334-0.667,6.334l7.333,2.666
	c0,0-0.333,1.666,2.667-9.666c3-11.334,0-13.334,8-25c8-11.668,13.333-17,16.333-18.334s6.666-1,8.333-1s5.667,1.666,6.667,2.666
	c1,1.002-2.667,37-2,42.668"/>
<ellipse transform="matrix(-0.9958 0.0919 -0.0919 -0.9958 106.4413 103.458)" fill="#FFEAB0" stroke="#000000" stroke-width="2" cx="50.839" cy="54.18" rx="26.502" ry="9.682"/>
<line fill="none" stroke="#000000" stroke-width="2" x1="53.156" y1="45.979" x2="69.156" y2="59.979"/>
<line fill="none" stroke="#000000" stroke-width="2" x1="67.49" y1="44.645" x2="55.156" y2="61.979"/>
<line fill="none" stroke="#000000" stroke-width="2" x1="30.823" y1="48.645" x2="51.49" y2="61.978"/>
<line fill="none" stroke="#000000" stroke-width="2" x1="45.823" y1="45.312" x2="36.322" y2="63.228"/>
<path fill="#BF0600" stroke="#000000" stroke-width="2" d="M81.625,20.753c0,0,7.833,5.332,10.75,3.166s8.75-7.916,14.25-7.583
	s12.417,2.834,15.084,7.667c2.666,4.833,5.916,2.416,7.666,1.583s-2.25-9.917-2.25-9.917s-3.666,2.751-7.333,0.584
	s-10.584-7.334-17.917-2.667s-7.25,8.917-13.333,7.25s-6.583-1.25-6.583-1.25v0.583L81.625,20.753z"/>
<path fill="#BF0600" stroke="#000000" stroke-width="2" d="M14.875,23.169l-2,6.25c0,0,7.125,6.375,17.5,7.375
	s7.625,1.375,17.5-0.125S72.5,30.294,75.25,28.544s5.5-4.375,6.625-4.125s2.125-0.875,4.375,1s8.5,10.875,15.5,14.5
	s13.125,8.75,27,4.5s13.125-4.375,13.125-4.375l-13.125-6.625c0,0-11,9.875-23.875,1.25s-11.25-12.75-20.75-14s-9.5,0-9.5,0
	s-5.5,5.875-27.5,5.75S26,25.419,14.875,23.169z"/>
<ellipse fill="#FFEAB0" stroke="#000000" stroke-width="2" cx="6.125" cy="172.669" rx="5.125" ry="3.625"/>
<ellipse transform="matrix(-0.3804 0.9248 -0.9248 -0.3804 311.1325 74.3884)" fill="#FFEAB0" stroke="#000000" stroke-width="2" cx="130.648" cy="141.415" rx="5.188" ry="3.313"/>
<line fill="none" stroke="#000000" stroke-width="2" x1="128.701" y1="133.979" x2="141.667" y2="142.009"/>
<linearGradient id="SVGID_1_" gradientUnits="userSpaceOnUse" x1="366.3074" y1="735.9355" x2="288.9693" y2="816.9404" gradientTransform="matrix(0.9342 -0.3566 0.3566 0.9342 -437.6244 -503.8042)">
	<stop  offset="0" style="stop-color:#FFFFFF"/>
	<stop  offset="1" style="stop-color:#000000"/>
</linearGradient>
<path fill="url(#SVGID_1_)" stroke="#000000" stroke-width="2" d="M134.718,137.123c0,0,50.394-91.845,41.98-102.192l-7.68-5.631
	c7.452,10.177-37.023,105.831-37.023,105.831"/>
<path fill="#000D29" stroke="#000000" stroke-width="2" d="M83.522,158.204c1.546,4.316,2.25,7.5,2.25,7.5s4.718,7.441,4.051,13.107
	c4.5,8.25,3.5,8.25,3.5,8.25c0.245,0.16,11.466,18.656,11.5,18.75c5.25,10.5,13.193-1.012,15.193,2.452s2.654,1.932,0.557,4.298
	c-2.098,2.365-12.019,8.982-14.75,8.25c-2.732-0.731-8.529-0.477-8.862-3.477s-3.138-7.523-3.138-7.523l-4.667-6.418
	c0,0-4.75-8.25-6-16c-3-6.5-5.916-11.582-11.583-13.582s-6.43-2.176-9.43-1.508c-3,0.666-3.667-1-5.333,3
	c-1.667,4-3.667,24-5,26.666c-1.334,2.668-2.334,16.334-5.667,18.668c-3.333,2.332-8.333,5.332-8.333,5.332s-1.334,1-4.667,1
	s-4,1.334-5-1.666s-0.334-5.332,1.333-6.666s4.334-4.668,7.334-4.668s6.999-31.666,9.666-33.666c1.296-4.85,1-6,2-8.334
	c1-2.332,2.43-9.324,4.097-12.658"/>
</svg>
