<?xml version="1.0" encoding="utf-8"?>
<!-- Generator: Adobe Illustrator 13.0.0, SVG Export Plug-In . SVG Version: 6.00 Build 14948)  -->
<!DOCTYPE svg PUBLIC "-//W3C//DTD SVG 1.0//EN" "http://www.w3.org/TR/2001/REC-SVG-20010904/DTD/svg10.dtd">
<svg version="1.0" id="Layer_1" xmlns="http://www.w3.org/2000/svg" xmlns:xlink="http://www.w3.org/1999/xlink" x="0px" y="0px"
	 width="193.39px" height="190.022px" viewBox="0 0 193.39 190.022" enable-background="new 0 0 193.39 190.022"
	 xml:space="preserve">
<path fill="#FFFFFF" stroke="#000000" stroke-width="2" d="M59.946,76.377"/>
<linearGradient id="SVGID_1_" gradientUnits="userSpaceOnUse" x1="100.937" y1="0.4336" x2="96.8596" y2="85.1529">
	<stop  offset="0" style="stop-color:#3F3900"/>
	<stop  offset="1" style="stop-color:#000000"/>
</linearGradient>
<path fill="url(#SVGID_1_)" stroke="#000000" stroke-width="2" d="M59.721,78.909c1.768,9.246,78.028,6.908,79.392-4.712
	c1.363-11.619,3.665-30.062,0.439-38.979c-3.227-8.918-20.876-32.58-24.437-33.931S81.095,3.799,81.095,3.799
	S56.319,27.813,56.281,41.747C56.281,41.747,55.603,75.86,59.721,78.909"/>
<linearGradient id="SVGID_2_" gradientUnits="userSpaceOnUse" x1="103.5796" y1="64.9844" x2="99.6557" y2="146.515">
	<stop  offset="0" style="stop-color:#BF8200"/>
	<stop  offset="1" style="stop-color:#000000"/>
</linearGradient>
<path fill="url(#SVGID_2_)" stroke="#000000" stroke-width="2" d="M24.823,91.338c0,0,29.038,15.957,30.901,25.157
	s1.09,14.151,11.535,28.461l56.983,2.703c0,0,14.899-17.087,21.117-41.968c0,0,9.057-11.58,34.488-15.352
	c0,0-9.235-12.865-39.74-23.597c0,0-26.3,32.473-82.457,9.097L24.823,91.338z"/>
<linearGradient id="SVGID_3_" gradientUnits="userSpaceOnUse" x1="29.6401" y1="95.8394" x2="27.3205" y2="144.036">
	<stop  offset="0" style="stop-color:#3F3900"/>
	<stop  offset="1" style="stop-color:#000000"/>
</linearGradient>
<path fill="url(#SVGID_3_)" stroke="#000000" stroke-width="2" d="M31.111,95.91c0,0,14.53,5.973,23.219,17.449l-36.808,30.205
	l-15.291-8.715C2.231,134.849,23.113,95.537,31.111,95.91z"/>
<linearGradient id="SVGID_4_" gradientUnits="userSpaceOnUse" x1="31.835" y1="120.6587" x2="30.3963" y2="150.5508" gradientTransform="matrix(0.0643 -0.9979 0.9979 0.0643 -120.421 154.8671)">
	<stop  offset="0" style="stop-color:#3F3900"/>
	<stop  offset="1" style="stop-color:#000000"/>
</linearGradient>
<polygon fill="url(#SVGID_4_)" stroke="#000000" stroke-width="2" points="32.036,116.716 1.573,134.961 15.461,149.915 
	32.897,124.267 "/>
<linearGradient id="SVGID_5_" gradientUnits="userSpaceOnUse" x1="43.2046" y1="149.0229" x2="42.4964" y2="163.7379" gradientTransform="matrix(0.0643 -0.9979 0.9979 0.0643 -120.421 154.8671)">
	<stop  offset="0" style="stop-color:#BF8200"/>
	<stop  offset="1" style="stop-color:#000000"/>
</linearGradient>
<path fill="url(#SVGID_5_)" stroke="#000000" stroke-width="2" d="M32.897,124.267c0,0,2.889,16.298,12.266,3.575l-3.041-6.539
	c0,0-5.4,6.589-5.754,0.127c0,0-2.915-5.171,2.332-6.387l0.507-3.294l-6.969-0.735l-0.203,5.702L32.897,124.267z"/>
<linearGradient id="SVGID_6_" gradientUnits="userSpaceOnUse" x1="170.0415" y1="91.252" x2="168.1892" y2="129.7396">
	<stop  offset="0" style="stop-color:#3F3900"/>
	<stop  offset="1" style="stop-color:#000000"/>
</linearGradient>
<path fill="url(#SVGID_6_)" stroke="#000000" stroke-width="2" d="M145.809,104.392c0,0,15.184,13.725,28.99,20.302l8.523,5.774
	l8.507-1.59c0,0-5.226-27.902-19.101-37.497C172.729,91.381,152.521,96.621,145.809,104.392z"/>
<linearGradient id="SVGID_7_" gradientUnits="userSpaceOnUse" x1="176.147" y1="117.7046" x2="175.1523" y2="138.3726">
	<stop  offset="0" style="stop-color:#3F3900"/>
	<stop  offset="1" style="stop-color:#000000"/>
</linearGradient>
<path fill="url(#SVGID_7_)" stroke="#000000" stroke-width="2" d="M159.013,136.682c0,0,12.066-15.329,23.405-18.676l9.411,10.872
	c0,0-18.655,10.396-20.228,9.252L159.013,136.682z"/>
<linearGradient id="SVGID_8_" gradientUnits="userSpaceOnUse" x1="163.0366" y1="136.8755" x2="162.3416" y2="151.3158">
	<stop  offset="0" style="stop-color:#BF8200"/>
	<stop  offset="1" style="stop-color:#000000"/>
</linearGradient>
<path fill="url(#SVGID_8_)" stroke="#000000" stroke-width="2" d="M148.659,147.812c0,0-1.922-8.535,2.209-9.844
	c4.132-1.307,8.146-1.286,8.146-1.286l17.236,1.86c0,0,1.388-0.547,1.064,3.105s-0.765,8.633-0.765,8.633l-7.149,1.375l-1.572-1.143
	c0,0,7.104-8.406-2.614-8.263s-7.607-1.008-6.994,3.396L148.659,147.812z"/>
<linearGradient id="SVGID_9_" gradientUnits="userSpaceOnUse" x1="64.4316" y1="169.8315" x2="63.5712" y2="187.7098">
	<stop  offset="0" style="stop-color:#5F3000"/>
	<stop  offset="1" style="stop-color:#000000"/>
</linearGradient>
<path fill="url(#SVGID_9_)" stroke="#000000" stroke-width="2" d="M47.974,170.019l-1.146,12.95c0,0-3.342,3.72,6.317,4.239
	l21.367,0.554c0,0,7.305,0.646,6.947-10.429l0.256-6.67L47.974,170.019z"/>
<linearGradient id="SVGID_10_" gradientUnits="userSpaceOnUse" x1="124.7915" y1="170.4575" x2="123.925" y2="188.4621">
	<stop  offset="0" style="stop-color:#5F3000"/>
	<stop  offset="1" style="stop-color:#000000"/>
</linearGradient>
<path fill="url(#SVGID_10_)" stroke="#000000" stroke-width="2" d="M107.096,171.238l0.232,8.721c0,0-0.069,8.361,6.747,6.956
	l18.593,1.646c0,0,8.457,2.757,9.162-5.212l-0.602-12.101L107.096,171.238z"/>
<linearGradient id="SVGID_11_" gradientUnits="userSpaceOnUse" x1="97.4204" y1="137.8394" x2="95.7816" y2="171.8908">
	<stop  offset="0" style="stop-color:#3F3900"/>
	<stop  offset="1" style="stop-color:#000000"/>
</linearGradient>
<path fill="url(#SVGID_11_)" stroke="#000000" stroke-width="2" d="M61.555,138.051l72.287,1.708c0,0,5.86-1.331,7.075,5.521
	l4.276,26.674l-98.714-2.437l3.554-24.755C50.034,144.763,48.272,136.839,61.555,138.051z"/>
<path fill="#BF0000" stroke="#000000" stroke-width="2" d="M65.268,42.717c0,0,14.287,4.946,31.182,3.095l0.009,3.682
	c0,0-7.442,4.695-32.442-0.195L65.268,42.717z"/>
<path fill="#FF1F1F" stroke="#000000" stroke-width="2" d="M131.076,35.417c0,0-13.039,7.654-29.969,9.156l0.715,3.611
	c0,0,8.219,3.143,31.772-6.56L131.076,35.417z"/>
<path fill="none" stroke="#000000" stroke-width="2" d="M66.025,56.839l16.62,8.833l10.76,13.671c0,0,7.359,4.664,15.644-1.964
	l3.689-14.036l18-10.667"/>
<polygon stroke="#000000" stroke-width="2" points="91.647,67.261 106.853,65.596 105.144,69.795 95.006,70.905 "/>
<polygon stroke="#000000" stroke-width="2" points="65.192,100.268 75.027,98.796 79.134,112.88 65.676,113.697 "/>
<polygon stroke="#000000" stroke-width="2" points="66.652,117.798 77.726,117.441 78.292,126.191 67.401,128.239 "/>
<ellipse transform="matrix(0.9961 0.0881 -0.0881 0.9961 9.8806 -8.054)" fill="#0042DF" stroke="#000000" stroke-width="2" cx="96.144" cy="107.861" rx="4.166" ry="3.5"/>
<ellipse transform="matrix(0.9961 0.0881 -0.0881 0.9961 9.8659 -9.2863)" fill="#DF2800" stroke="#000000" stroke-width="2" cx="110.1" cy="107.088" rx="6" ry="5.5"/>
<ellipse transform="matrix(0.9961 0.0881 -0.0881 0.9961 9.9703 -10.5305)" fill="#FDFF00" stroke="#000000" stroke-width="2" cx="124.269" cy="107.673" rx="4.5" ry="4.167"/>
<line fill="none" stroke="#000000" stroke-width="2" x1="51.072" y1="173.011" x2="76.072" y2="173.344"/>
<line fill="none" stroke="#000000" stroke-width="2" x1="50.405" y1="177.677" x2="75.072" y2="177.677"/>
<line fill="none" stroke="#000000" stroke-width="2" x1="50.738" y1="182.344" x2="74.738" y2="182.011"/>
<line fill="none" stroke="#000000" stroke-width="2" x1="110.405" y1="174.344" x2="138.405" y2="174.011"/>
<line fill="none" stroke="#000000" stroke-width="2" x1="110.072" y1="178.677" x2="138.072" y2="178.677"/>
<line fill="none" stroke="#000000" stroke-width="2" x1="111.072" y1="184.011" x2="137.072" y2="184.011"/>
</svg>
