<?xml version="1.0" encoding="utf-8"?>
<!-- Generator: Adobe Illustrator 13.0.0, SVG Export Plug-In . SVG Version: 6.00 Build 14948)  -->
<!DOCTYPE svg PUBLIC "-//W3C//DTD SVG 1.0//EN" "http://www.w3.org/TR/2001/REC-SVG-20010904/DTD/svg10.dtd">
<svg version="1.0" id="Layer_1" xmlns="http://www.w3.org/2000/svg" xmlns:xlink="http://www.w3.org/1999/xlink" x="0px" y="0px"
	 width="166.567px" height="190.022px" viewBox="0 0 166.567 190.022" enable-background="new 0 0 166.567 190.022"
	 xml:space="preserve">
<path fill="#FFFFFF" stroke="#000000" stroke-width="2" d="M40.595,76.377"/>
<linearGradient id="SVGID_1_" gradientUnits="userSpaceOnUse" x1="81.5864" y1="0.4336" x2="77.509" y2="85.1529">
	<stop  offset="0" style="stop-color:#3F3900"/>
	<stop  offset="1" style="stop-color:#000000"/>
</linearGradient>
<path fill="url(#SVGID_1_)" stroke="#000000" stroke-width="2" d="M40.371,78.909c1.768,9.246,78.028,6.908,79.392-4.712
	c1.363-11.619,3.665-30.062,0.439-38.979c-3.227-8.918-20.876-32.58-24.437-33.931S61.745,3.799,61.745,3.799
	S36.968,27.813,36.93,41.747C36.93,41.747,36.252,75.86,40.371,78.909"/>
<linearGradient id="SVGID_2_" gradientUnits="userSpaceOnUse" x1="25.0435" y1="101.2642" x2="22.7238" y2="149.4613" gradientTransform="matrix(0.8675 -0.4974 0.4974 0.8675 -63.2522 21.3532)">
	<stop  offset="0" style="stop-color:#3F3900"/>
	<stop  offset="1" style="stop-color:#000000"/>
</linearGradient>
<path fill="url(#SVGID_2_)" stroke="#000000" stroke-width="2" d="M10.154,96.075c0,0,15.576-2.046,28.822,3.589l-16.907,44.512
	l-17.6,0.046C4.469,144.221,3.03,99.73,10.154,96.075z"/>
<linearGradient id="SVGID_3_" gradientUnits="userSpaceOnUse" x1="14.5952" y1="142.1538" x2="13.1566" y2="172.0455" gradientTransform="matrix(0.7394 0.6733 -0.6733 0.7394 111.2058 19.3833)">
	<stop  offset="0" style="stop-color:#3F3900"/>
	<stop  offset="1" style="stop-color:#000000"/>
</linearGradient>
<polygon fill="url(#SVGID_3_)" stroke="#000000" stroke-width="2" points="18.611,166.586 23.376,131.398 3.024,132.913 
	12.174,162.544 "/>
<linearGradient id="SVGID_4_" gradientUnits="userSpaceOnUse" x1="25.9644" y1="170.5181" x2="25.2562" y2="185.233" gradientTransform="matrix(0.7394 0.6733 -0.6733 0.7394 111.2058 19.3833)">
	<stop  offset="0" style="stop-color:#BF8200"/>
	<stop  offset="1" style="stop-color:#000000"/>
</linearGradient>
<path fill="url(#SVGID_4_)" stroke="#000000" stroke-width="2" d="M12.174,162.544c0,0-14.535-7.917-10.451,7.351l7.007,1.707
	c0,0-1.776-8.332,3.493-4.574c0,0,5.859,0.951,3.533,5.809l2.258,2.453l4.924-4.985l-4.328-3.718L12.174,162.544z"/>
<linearGradient id="SVGID_5_" gradientUnits="userSpaceOnUse" x1="142.8013" y1="92.269" x2="140.9489" y2="130.7562" gradientTransform="matrix(0.9103 0.4139 -0.4139 0.9103 61.7472 -51.6139)">
	<stop  offset="0" style="stop-color:#3F3900"/>
	<stop  offset="1" style="stop-color:#000000"/>
</linearGradient>
<path fill="url(#SVGID_5_)" stroke="#000000" stroke-width="2" d="M126.047,93.421c0,0,8.141,18.779,17.985,30.481l5.369,8.784
	l8.401,2.074c0,0,6.794-27.563-1.865-42.04C155.938,92.721,135.375,89.125,126.047,93.421z"/>
<linearGradient id="SVGID_6_" gradientUnits="userSpaceOnUse" x1="135.5063" y1="137.7212" x2="134.5116" y2="158.3896" gradientTransform="matrix(0.6878 -0.7259 0.7259 0.6878 -51.7802 131.0428)">
	<stop  offset="0" style="stop-color:#3F3900"/>
	<stop  offset="1" style="stop-color:#000000"/>
</linearGradient>
<path fill="url(#SVGID_6_)" stroke="#000000" stroke-width="2" d="M143.385,152.883c0,0-2.829-19.303,2.54-29.835l14.365,0.646
	c0,0-5.284,20.692-7.195,21.047L143.385,152.883z"/>
<linearGradient id="SVGID_7_" gradientUnits="userSpaceOnUse" x1="122.396" y1="156.8921" x2="121.701" y2="171.3334" gradientTransform="matrix(0.6878 -0.7259 0.7259 0.6878 -51.7802 131.0428)">
	<stop  offset="0" style="stop-color:#BF8200"/>
	<stop  offset="1" style="stop-color:#000000"/>
</linearGradient>
<path fill="url(#SVGID_7_)" stroke="#000000" stroke-width="2" d="M144.343,168.054c0,0-7.518-4.475-5.626-8.372
	c1.894-3.899,4.668-6.799,4.668-6.799l13.205-11.233c0,0,0.558-1.382,2.986,1.364c2.429,2.747,5.741,6.492,5.741,6.492l-3.918,6.136
	l-1.911,0.354c0,0-1.218-10.938-7.797-3.783c-6.579,7.152-5.964,4.829-2.345,7.412L144.343,168.054z"/>
<linearGradient id="SVGID_8_" gradientUnits="userSpaceOnUse" x1="45.0811" y1="169.8315" x2="44.2206" y2="187.7098">
	<stop  offset="0" style="stop-color:#5F3000"/>
	<stop  offset="1" style="stop-color:#000000"/>
</linearGradient>
<path fill="url(#SVGID_8_)" stroke="#000000" stroke-width="2" d="M28.624,170.019l-1.146,12.95c0,0-3.342,3.72,6.317,4.239
	l21.367,0.554c0,0,7.305,0.646,6.947-10.429l0.256-6.67L28.624,170.019z"/>
<linearGradient id="SVGID_9_" gradientUnits="userSpaceOnUse" x1="105.4409" y1="170.4575" x2="104.5744" y2="188.4621">
	<stop  offset="0" style="stop-color:#5F3000"/>
	<stop  offset="1" style="stop-color:#000000"/>
</linearGradient>
<path fill="url(#SVGID_9_)" stroke="#000000" stroke-width="2" d="M87.746,171.238l0.232,8.721c0,0-0.069,8.361,6.747,6.956
	l18.593,1.646c0,0,8.457,2.757,9.162-5.212l-0.602-12.101L87.746,171.238z"/>
<linearGradient id="SVGID_10_" gradientUnits="userSpaceOnUse" x1="84.229" y1="64.9844" x2="80.3051" y2="146.515">
	<stop  offset="0" style="stop-color:#BF8200"/>
	<stop  offset="1" style="stop-color:#000000"/>
</linearGradient>
<path fill="url(#SVGID_10_)" stroke="#000000" stroke-width="2" d="M5.472,91.338c0,0,29.038,15.957,30.901,25.157
	s1.09,14.151,11.535,28.461l56.983,2.703c0,0,14.899-17.087,21.117-41.968c0,0,9.057-11.58,34.488-15.352
	c0,0-9.235-12.865-39.74-23.597c0,0-26.3,32.473-82.457,9.097L5.472,91.338z"/>
<path fill="#333333" stroke="#000000" stroke-width="2" d="M45.917,42.717c0,0,14.287,4.946,31.182,3.095l0.009,3.682
	c0,0-7.442,4.695-32.442-0.195L45.917,42.717z"/>
<path fill="#333333" stroke="#000000" stroke-width="2" d="M111.725,35.417c0,0-13.039,7.654-29.969,9.156l0.715,3.611
	c0,0,8.219,3.143,31.772-6.56L111.725,35.417z"/>
<path fill="none" stroke="#000000" stroke-width="2" d="M46.674,56.839l16.62,8.833l10.76,13.671c0,0,7.359,4.664,15.644-1.964
	l3.689-14.036l18-10.667"/>
<polygon stroke="#000000" stroke-width="2" points="72.296,67.261 87.502,65.596 85.793,69.795 75.656,70.905 "/>
<polygon stroke="#000000" stroke-width="2" points="45.841,100.268 55.676,98.796 59.784,112.88 46.326,113.697 "/>
<polygon stroke="#000000" stroke-width="2" points="47.301,117.798 58.375,117.441 58.941,126.191 48.05,128.239 "/>
<ellipse transform="matrix(0.9961 0.0881 -0.0881 0.9961 9.8053 -6.3485)" fill="#333333" stroke="#000000" stroke-width="2" cx="76.793" cy="107.861" rx="4.166" ry="3.5"/>
<ellipse transform="matrix(0.9961 0.0881 -0.0881 0.9961 9.7906 -7.5809)" fill="#333333" stroke="#000000" stroke-width="2" cx="90.749" cy="107.088" rx="6" ry="5.5"/>
<ellipse transform="matrix(0.9961 0.0881 -0.0881 0.9961 9.8951 -8.8255)" fill="#333333" stroke="#000000" stroke-width="2" cx="104.918" cy="107.673" rx="4.5" ry="4.167"/>
<line fill="none" stroke="#000000" stroke-width="2" x1="31.721" y1="173.011" x2="56.721" y2="173.344"/>
<line fill="none" stroke="#000000" stroke-width="2" x1="31.054" y1="177.677" x2="55.721" y2="177.677"/>
<line fill="none" stroke="#000000" stroke-width="2" x1="31.387" y1="182.344" x2="55.387" y2="182.011"/>
<line fill="none" stroke="#000000" stroke-width="2" x1="91.054" y1="174.344" x2="119.054" y2="174.011"/>
<line fill="none" stroke="#000000" stroke-width="2" x1="90.721" y1="178.677" x2="118.721" y2="178.677"/>
<line fill="none" stroke="#000000" stroke-width="2" x1="91.721" y1="184.011" x2="117.721" y2="184.011"/>
<linearGradient id="SVGID_11_" gradientUnits="userSpaceOnUse" x1="78.3091" y1="141.7202" x2="76.6702" y2="175.7716" gradientTransform="matrix(0.9987 -0.05 0.05 0.9987 -8.3954 4.337)">
	<stop  offset="0" style="stop-color:#3F3900"/>
	<stop  offset="1" style="stop-color:#000000"/>
</linearGradient>
<path fill="url(#SVGID_11_)" stroke="#000000" stroke-width="2" d="M41.091,143.97l72.282-1.908c0,0,5.786-1.622,7.344,5.16
	l5.604,26.427l-98.713,2.502l2.312-24.901C29.919,151.25,27.764,143.424,41.091,143.97z"/>
<path fill="none" stroke="#000000" stroke-width="2" d="M37.384,75.442c0,0-19.006,1.461-14.912-10.819
	c3.926-11.776,13.229-21.403,6.25-26.556c-0.298-0.22-0.626-0.433-0.986-0.637"/>
<path fill="none" stroke="#000000" stroke-width="2" d="M29.489,69.01c0,0,9.649,2.924,1.754-7.018s-9.064,1.461-14.328-14.62
	s2.339-15.205,6.725-21.93s-13.158-2.631-5.263,2.047"/>
<path fill="none" stroke="#000000" stroke-width="2" d="M32.413,77.489c0,0-24.269-18.421-15.79-20.76s16.959-8.48,8.772-16.082
	s-1.169-13.158-1.169-13.158s7.895-1.169,3.216,7.603"/>
<path fill="none" stroke="#000000" stroke-width="2" d="M133.42,104.646c0,0-17.951-6.41-9.209-15.957
	c8.385-9.154,20.805-14.153,16.53-21.704c-0.184-0.323-0.396-0.651-0.642-0.983"/>
<path fill="none" stroke="#000000" stroke-width="2" d="M128.833,95.554c0,0,7.622,6.603,4.463-5.693
	c-3.159-12.295-8.873-2.359-7.126-19.189s8.331-12.932,15.078-17.286c6.746-4.354-10.944-7.765-5.642-0.276"/>
<path fill="none" stroke="#000000" stroke-width="2" d="M128.047,104.49c0,0-14.655-26.712-5.958-25.393
	c8.696,1.319,18.942-0.833,14.563-11.112c-4.378-10.278,4.294-12.492,4.294-12.492s7.687,2.149-0.161,8.253"/>
</svg>
