<?xml version="1.0" encoding="utf-8"?>
<!-- Generator: Adobe Illustrator 13.0.0, SVG Export Plug-In . SVG Version: 6.00 Build 14948)  -->
<!DOCTYPE svg PUBLIC "-//W3C//DTD SVG 1.0//EN" "http://www.w3.org/TR/2001/REC-SVG-20010904/DTD/svg10.dtd">
<svg version="1.0" id="Layer_1" xmlns="http://www.w3.org/2000/svg" xmlns:xlink="http://www.w3.org/1999/xlink" x="0px" y="0px"
	 width="193.372px" height="190.022px" viewBox="0 0 193.372 190.022" enable-background="new 0 0 193.372 190.022"
	 xml:space="preserve">
<path fill="#FFFFFF" stroke="#000000" stroke-width="2" d="M59.304,76.377"/>
<linearGradient id="SVGID_1_" gradientUnits="userSpaceOnUse" x1="100.2949" y1="0.4336" x2="96.2175" y2="85.1529">
	<stop  offset="0" style="stop-color:#3F3900"/>
	<stop  offset="1" style="stop-color:#000000"/>
</linearGradient>
<path fill="url(#SVGID_1_)" stroke="#000000" stroke-width="2" d="M59.079,78.909c1.768,9.246,78.028,6.908,79.392-4.712
	c1.363-11.619,3.665-30.062,0.439-38.979c-3.227-8.918-20.876-32.58-24.437-33.931S80.453,3.799,80.453,3.799
	S55.677,27.813,55.639,41.747C55.639,41.747,54.961,75.86,59.079,78.909"/>
<linearGradient id="SVGID_2_" gradientUnits="userSpaceOnUse" x1="102.9375" y1="64.9844" x2="99.0136" y2="146.515">
	<stop  offset="0" style="stop-color:#BF8200"/>
	<stop  offset="1" style="stop-color:#000000"/>
</linearGradient>
<path fill="url(#SVGID_2_)" stroke="#000000" stroke-width="2" d="M24.181,91.338c0,0,29.038,15.957,30.901,25.157
	s1.09,14.151,11.535,28.461l56.983,2.703c0,0,14.899-17.087,21.117-41.968c0,0,9.057-11.58,34.488-15.352
	c0,0-9.235-12.865-39.74-23.597c0,0-26.3,32.473-82.457,9.097L24.181,91.338z"/>
<linearGradient id="SVGID_3_" gradientUnits="userSpaceOnUse" x1="28.998" y1="95.8394" x2="26.6784" y2="144.036">
	<stop  offset="0" style="stop-color:#3F3900"/>
	<stop  offset="1" style="stop-color:#000000"/>
</linearGradient>
<path fill="url(#SVGID_3_)" stroke="#000000" stroke-width="2" d="M30.469,95.91c0,0,14.53,5.973,23.219,17.449L16.88,143.564
	l-15.291-8.715C1.589,134.849,22.471,95.537,30.469,95.91z"/>
<linearGradient id="SVGID_4_" gradientUnits="userSpaceOnUse" x1="19.7378" y1="120.2261" x2="18.2992" y2="150.1173">
	<stop  offset="0" style="stop-color:#3F3900"/>
	<stop  offset="1" style="stop-color:#000000"/>
</linearGradient>
<polygon fill="url(#SVGID_4_)" stroke="#000000" stroke-width="2" points="35.785,149.253 15.617,120.028 1.589,134.849 
	28.305,150.599 "/>
<linearGradient id="SVGID_5_" gradientUnits="userSpaceOnUse" x1="31.106" y1="148.5894" x2="30.3978" y2="163.3038">
	<stop  offset="0" style="stop-color:#BF8200"/>
	<stop  offset="1" style="stop-color:#000000"/>
</linearGradient>
<path fill="url(#SVGID_5_)" stroke="#000000" stroke-width="2" d="M28.305,150.599c0,0-16.077,3.932-2.778,12.471l6.33-3.455
	c0,0-6.923-4.965-0.497-5.733c0,0,4.973-3.241,6.523,1.916l3.32,0.294l0.285-7.002l-5.703,0.164L28.305,150.599z"/>
<linearGradient id="SVGID_6_" gradientUnits="userSpaceOnUse" x1="169.3994" y1="91.252" x2="167.5471" y2="129.7396">
	<stop  offset="0" style="stop-color:#3F3900"/>
	<stop  offset="1" style="stop-color:#000000"/>
</linearGradient>
<path fill="url(#SVGID_6_)" stroke="#000000" stroke-width="2" d="M145.167,104.392c0,0,15.184,13.725,28.99,20.302l8.523,5.774
	l8.507-1.59c0,0-5.226-27.902-19.101-37.497C172.087,91.381,151.879,96.621,145.167,104.392z"/>
<linearGradient id="SVGID_7_" gradientUnits="userSpaceOnUse" x1="166.8086" y1="111.061" x2="165.8139" y2="131.7285" gradientTransform="matrix(0.3666 0.9304 -0.9304 0.3666 232.3523 -72.6373)">
	<stop  offset="0" style="stop-color:#3F3900"/>
	<stop  offset="1" style="stop-color:#000000"/>
</linearGradient>
<path fill="url(#SVGID_7_)" stroke="#000000" stroke-width="2" d="M166.232,114.287c0,0,18.686,5.607,25.955,14.931l-6.665,12.741
	c0,0-16.511-13.546-16.022-15.428L166.232,114.287z"/>
<linearGradient id="SVGID_8_" gradientUnits="userSpaceOnUse" x1="153.6982" y1="130.2319" x2="153.0032" y2="144.6727" gradientTransform="matrix(0.3666 0.9304 -0.9304 0.3666 232.3523 -72.6373)">
	<stop  offset="0" style="stop-color:#BF8200"/>
	<stop  offset="1" style="stop-color:#000000"/>
</linearGradient>
<path fill="url(#SVGID_8_)" stroke="#000000" stroke-width="2" d="M152.082,108.733c0,0,7.236-4.917,9.968-1.553
	c2.73,3.365,4.183,7.106,4.183,7.106l4.588,16.719c0,0,1.017,1.091-2.5,2.129s-8.312,2.453-8.312,2.453l-3.9-6.147l0.487-1.882
	c0,0,10.425,3.527,6.729-5.461c-3.695-8.989-1.851-7.448-5.724-5.263L152.082,108.733z"/>
<linearGradient id="SVGID_9_" gradientUnits="userSpaceOnUse" x1="63.7896" y1="169.8315" x2="62.9291" y2="187.7098">
	<stop  offset="0" style="stop-color:#5F3000"/>
	<stop  offset="1" style="stop-color:#000000"/>
</linearGradient>
<path fill="url(#SVGID_9_)" stroke="#000000" stroke-width="2" d="M47.332,170.019l-1.146,12.95c0,0-3.342,3.72,6.317,4.239
	l21.367,0.554c0,0,7.305,0.646,6.947-10.429l0.256-6.67L47.332,170.019z"/>
<linearGradient id="SVGID_10_" gradientUnits="userSpaceOnUse" x1="124.1494" y1="170.4575" x2="123.2829" y2="188.4621">
	<stop  offset="0" style="stop-color:#5F3000"/>
	<stop  offset="1" style="stop-color:#000000"/>
</linearGradient>
<path fill="url(#SVGID_10_)" stroke="#000000" stroke-width="2" d="M106.454,171.238l0.232,8.721c0,0-0.069,8.361,6.747,6.956
	l18.593,1.646c0,0,8.457,2.757,9.162-5.212l-0.602-12.101L106.454,171.238z"/>
<linearGradient id="SVGID_11_" gradientUnits="userSpaceOnUse" x1="96.7783" y1="137.8394" x2="95.1395" y2="171.8908">
	<stop  offset="0" style="stop-color:#3F3900"/>
	<stop  offset="1" style="stop-color:#000000"/>
</linearGradient>
<path fill="url(#SVGID_11_)" stroke="#000000" stroke-width="2" d="M60.913,138.051l72.287,1.708c0,0,5.86-1.331,7.075,5.521
	l4.276,26.674l-98.714-2.437l3.554-24.755C49.392,144.763,47.63,136.839,60.913,138.051z"/>
<path fill="#00FF00" stroke="#000000" stroke-width="2" d="M64.626,42.717c0,0,14.287,4.946,31.182,3.095l0.009,3.682
	c0,0-7.442,4.695-32.442-0.195L64.626,42.717z"/>
<path fill="#00FF00" stroke="#000000" stroke-width="2" d="M130.434,35.417c0,0-13.039,7.654-29.969,9.156l0.715,3.611
	c0,0,8.219,3.143,31.772-6.56L130.434,35.417z"/>
<path fill="none" stroke="#000000" stroke-width="2" d="M65.383,56.839l16.62,8.833l10.76,13.671c0,0,7.359,4.664,15.644-1.964
	l3.689-14.036l18-10.667"/>
<polygon stroke="#000000" stroke-width="2" points="91.005,67.261 106.211,65.596 104.502,69.795 94.364,70.905 "/>
<polygon stroke="#000000" stroke-width="2" points="64.55,100.268 74.385,98.796 78.492,112.88 65.034,113.697 "/>
<polygon stroke="#000000" stroke-width="2" points="66.01,117.798 77.084,117.441 77.649,126.191 66.759,128.239 "/>
<ellipse transform="matrix(0.9961 0.0881 -0.0881 0.9961 9.8781 -7.9974)" fill="#FDFF1F" stroke="#000000" stroke-width="2" cx="95.501" cy="107.861" rx="4.166" ry="3.5"/>
<ellipse transform="matrix(0.9961 0.0881 -0.0881 0.9961 9.8634 -9.2297)" fill="#00FF00" stroke="#000000" stroke-width="2" cx="109.458" cy="107.088" rx="6" ry="5.5"/>
<ellipse transform="matrix(0.9961 0.0881 -0.0881 0.9961 9.9678 -10.4739)" fill="#004DBF" stroke="#000000" stroke-width="2" cx="123.627" cy="107.673" rx="4.5" ry="4.167"/>
<line fill="none" stroke="#000000" stroke-width="2" x1="50.43" y1="173.011" x2="75.43" y2="173.344"/>
<line fill="none" stroke="#000000" stroke-width="2" x1="49.763" y1="177.677" x2="74.43" y2="177.677"/>
<line fill="none" stroke="#000000" stroke-width="2" x1="50.096" y1="182.344" x2="74.096" y2="182.011"/>
<line fill="none" stroke="#000000" stroke-width="2" x1="109.763" y1="174.344" x2="137.763" y2="174.011"/>
<line fill="none" stroke="#000000" stroke-width="2" x1="109.43" y1="178.677" x2="137.43" y2="178.677"/>
<line fill="none" stroke="#000000" stroke-width="2" x1="110.43" y1="184.011" x2="136.43" y2="184.011"/>
</svg>
